<?xml version="1.0" encoding="UTF-8"?>
<svg version="1.1" xmlns="http://www.w3.org/2000/svg" width="1536" height="1024">
<path d="M0 0 C506.88 0 1013.76 0 1536 0 C1536 337.92 1536 675.84 1536 1024 C1029.12 1024 522.24 1024 0 1024 C0 686.08 0 348.16 0 0 Z " fill="#FDFDFD" transform="translate(0,0)"/>
<path d="M0 0 C2.8136975 1.40684875 2.85908551 2.93682919 3.9375 5.875 C17.7350147 39.76715094 44.71235415 68.70511601 74 90 C74.61504395 90.45552246 75.23008789 90.91104492 75.86376953 91.38037109 C94.87875614 105.44071503 115.683878 116.98669914 136.609375 127.9453125 C147.33480749 133.59351828 157.71589157 139.53105103 167.8125 146.25 C168.77172363 146.88695801 169.73094727 147.52391602 170.71923828 148.18017578 C177.46674764 152.75342232 183.75718791 157.76474435 190 163 C190.74540039 163.60884033 191.49080078 164.21768066 192.25878906 164.8449707 C207.09834386 177.011309 218.36402195 195.45608781 223 214 C222.45706401 207.20986383 221.10654986 201.19892802 218.9375 194.75 C218.63239502 193.83484619 218.32729004 192.91969238 218.01293945 191.97680664 C215.29441668 184.1826088 211.62820527 177.79867395 207 171 C206.31949195 169.67367764 205.65020563 168.34143761 205 167 C209.47011683 162.33750056 214.0588259 158.15452546 219.25 154.3125 C219.93400879 153.80412598 220.61801758 153.29575195 221.32275391 152.77197266 C235.94395864 142.06686822 251.65322688 133.20386445 267.57373047 124.61083984 C288.17626834 113.48705044 308.35271663 102.23264285 327 88 C327.98484375 87.24847656 328.9696875 86.49695313 329.984375 85.72265625 C335.0819885 81.72530405 339.90686064 77.46080246 344.67578125 73.078125 C346.27155435 71.65131611 347.91628763 70.2779929 349.59765625 68.953125 C351.71160534 67.23446721 353.38323341 65.57917687 355.125 63.5 C357.18723697 61.07252884 359.27233639 58.71475668 361.47265625 56.41015625 C377.05085748 40.06985597 388.66355736 20.92283643 397 0 C397.66 0 398.32 0 399 0 C399.44127922 22.01983325 399.66746209 43.35932402 395 65 C394.75910645 66.12229004 394.51821289 67.24458008 394.27001953 68.40087891 C389.83119267 88.64294785 389.83119267 88.64294785 386 97 C385.4241779 98.64121983 384.86091042 100.2869184 384.3125 101.9375 C381.54233651 109.61840785 377.79995262 116.78853437 374 124 C373.64776367 124.67256836 373.29552734 125.34513672 372.93261719 126.03808594 C367.46671625 136.38371878 361.16810132 145.76403906 354 155 C353.289646 155.93465088 353.289646 155.93465088 352.56494141 156.88818359 C339.60156842 173.89797775 324.41359575 189.53216632 307 202 C306.31808594 202.49435547 305.63617187 202.98871094 304.93359375 203.49804688 C298.16099081 208.39879444 291.35695794 213.21806538 284.25 217.625 C277.8243003 221.64711972 271.89280983 226.24734685 266 231 C265.46036621 231.43376953 264.92073242 231.86753906 264.36474609 232.31445312 C256.54072056 238.66343829 249.27392344 245.52814194 242.125 252.625 C241.34044434 253.40029053 240.55588867 254.17558105 239.74755859 254.97436523 C227.14922498 267.64083405 217.41592757 282.05262034 209.125 297.8125 C208.67278076 298.67141846 208.22056152 299.53033691 207.75463867 300.4152832 C204.80194983 306.1472324 202.28902941 311.97340219 200 318 C197.08820958 316.54410479 197.09365139 314.74982508 196.0625 311.6875 C190.03143551 295.60466137 180.81543155 281.25717633 170 268 C169.5035498 267.38930664 169.00709961 266.77861328 168.49560547 266.14941406 C158.43018336 253.87163118 147.5615974 242.75259698 135 233 C134.35869141 232.49823242 133.71738281 231.99646484 133.05664062 231.47949219 C125.20126487 225.34179609 117.30395097 219.39355534 108.94921875 213.9453125 C96.28968043 205.59504749 83.00207931 196.63497191 72.5546875 185.58984375 C70.87393028 183.87107946 69.09283524 182.35559698 67.25 180.8125 C44.05676049 160.65222258 26.08625433 131.41886837 15 103 C14.65453125 102.18660156 14.3090625 101.37320313 13.953125 100.53515625 C3.20493479 75.02887409 -1.03569056 46.94952021 -1.125 19.5 C-1.12975342 18.26999268 -1.13450684 17.03998535 -1.1394043 15.77270508 C-1.137229 14.5998999 -1.13505371 13.42709473 -1.1328125 12.21875 C-1.13168457 11.16623047 -1.13055664 10.11371094 -1.12939453 9.02929688 C-0.99771966 5.94661423 -0.57046461 3.02963729 0 0 Z " fill="#9CC53A" transform="translate(569,269)"/>
<path d="M0 0 C0.93085419 0.00068481 1.86170837 0.00136963 2.82077026 0.0020752 C33.86812639 0.07751859 33.86812639 0.07751859 47.5625 3.3125 C48.39652344 3.49876953 49.23054688 3.68503906 50.08984375 3.87695312 C52.08320246 4.32374042 54.07328105 4.78512818 56.0625 5.25 C53.55385071 6.52044707 51.02829539 7.74167104 48.48828125 8.94921875 C40.66837051 12.70532113 33.64067171 16.51022273 27.0625 22.25 C26.09054687 23.01570313 25.11859375 23.78140625 24.1171875 24.5703125 C21.01227019 27.16260262 18.61873892 30.12904841 16.3125 33.4375 C15.88984863 34.03771973 15.46719727 34.63793945 15.03173828 35.25634766 C7.61069603 46.04086413 1.74192473 57.77163748 -4.04394531 69.48730469 C-18.41018646 98.43636348 -39.47654095 124.32234968 -64.9375 144.25 C-65.57945312 144.75917969 -66.22140625 145.26835938 -66.8828125 145.79296875 C-108.88602941 178.25 -108.88602941 178.25 -124.9375 178.25 C-124.9375 178.91 -124.9375 179.57 -124.9375 180.25 C-135.40849827 184.27291759 -145.9374714 188.02271559 -156.60791016 191.48242188 C-158.97026725 192.2607965 -161.31894355 193.07298447 -163.66796875 193.890625 C-176.28484774 198.19700036 -188.54895662 200.46018121 -201.9375 200.25 C-201.9375 200.91 -201.9375 201.57 -201.9375 202.25 C-220.33920126 204.30597455 -238.39254264 205.76594617 -256.9375 205.25 C-255.30972204 200.318507 -252.48776581 196.43381094 -249.5 192.25 C-248.96721436 191.50032959 -248.43442871 190.75065918 -247.88549805 189.97827148 C-242.92282471 183.08130761 -237.58715963 176.59409136 -231.9375 170.25 C-231.29546631 169.52111572 -230.65343262 168.79223145 -229.99194336 168.04125977 C-224.61756551 161.99142346 -219.0330981 156.1895604 -213.29858398 150.48071289 C-211.86910283 149.05662508 -210.44509489 147.62721956 -209.02148438 146.19726562 C-203.82312922 141.00614548 -198.55132159 135.98904229 -192.9375 131.25 C-191.97585938 130.43015625 -191.01421875 129.6103125 -190.0234375 128.765625 C-159.23526273 103.03487375 -126.20342348 80.41739779 -90.9375 61.25 C-89.94379395 60.70988281 -88.95008789 60.16976562 -87.92626953 59.61328125 C-66.42958253 48.01244135 -44.40075998 37.2429716 -20.9375 30.25 C-30.16913651 32.60089839 -39.18013027 35.5437191 -48.1875 38.625 C-48.94772461 38.88499786 -49.70794922 39.14499573 -50.49121094 39.41287231 C-84.43586769 51.08311529 -116.98487939 66.05870791 -147.9375 84.25 C-149.0510083 84.8999292 -149.0510083 84.8999292 -150.18701172 85.56298828 C-169.5021012 96.85606676 -187.88630057 109.74897995 -204.9375 124.25 C-205.73849121 124.92579102 -205.73849121 124.92579102 -206.55566406 125.61523438 C-221.51385675 138.23910629 -236.32385797 151.22731475 -248.9375 166.25 C-249.76507812 167.22324219 -250.59265625 168.19648437 -251.4453125 169.19921875 C-256.57199337 175.20879945 -256.57199337 175.20879945 -261.17578125 181.6171875 C-262.04783203 182.92042969 -262.04783203 182.92042969 -262.9375 184.25 C-263.2675 184.25 -263.5975 184.25 -263.9375 184.25 C-262.78717943 144.2188442 -240.40438052 106.41967824 -211.9375 79.25 C-210.68334496 78.10643649 -209.41611038 76.9766698 -208.125 75.875 C-205.11235554 73.28366406 -202.17336542 70.62907755 -199.25 67.9375 C-168.5450827 40.39611964 -128.78181202 21.21751142 -88.9375 11.25 C-87.54514291 10.88444645 -86.15319579 10.5173268 -84.76171875 10.1484375 C-81.49588574 9.292738 -78.22009125 8.49236424 -74.93310547 7.72216797 C-73.58895192 7.40413604 -72.24681903 7.07745431 -70.90673828 6.74267578 C-47.62484123 0.95075325 -23.87680663 -0.02509571 0 0 Z " fill="#5AA93B" transform="translate(1040.9375,451.75)"/>
<path d="M0 0 C1.13022583 0.00215515 2.26045166 0.0043103 3.42492676 0.00653076 C20.524936 0.05885119 37.2816337 0.52306996 54.1875 3.3125 C55.40099121 3.50585938 56.61448242 3.69921875 57.86474609 3.8984375 C105.33424481 11.66911709 152.98224003 29.56880768 191.1875 59.3125 C191.99703125 59.93125 192.8065625 60.55 193.640625 61.1875 C200.49402383 66.53228903 206.88279972 72.34199183 213.1875 78.3125 C213.97495605 79.04895752 213.97495605 79.04895752 214.77832031 79.80029297 C239.34314671 102.89242588 265.02073655 139.80988697 266.3125 174.6875 C266.3125 177.56546367 266.27785916 180.43606688 266.1875 183.3125 C262.3771581 179.666338 259.1769616 175.82555947 256 171.625 C251.772032 166.12820855 247.32519868 161.23433064 242.328125 156.41796875 C240.59511415 154.71341976 239.06202711 153.02939943 237.5625 151.125 C235.00232081 148.09320886 232.22940434 145.65530779 229.21484375 143.08984375 C227.33714868 141.44369489 225.60622302 139.73514884 223.875 137.9375 C220.18396468 134.18787681 216.15917709 130.92015331 212.0625 127.625 C209.32802762 125.42553308 206.63332176 123.18401813 203.9375 120.9375 C187.61431481 107.62605743 170.02504388 95.38787346 151.58203125 85.2109375 C149.20528769 83.88171153 146.88780762 82.53106716 144.57421875 81.1015625 C110.3095865 60.04530246 71.51084224 45.03088697 33.1875 33.3125 C33.97060547 33.61317383 33.97060547 33.61317383 34.76953125 33.91992188 C45.80515544 38.18148953 56.5004665 42.74373202 66.99853516 48.19238281 C69.4064465 49.42453731 71.83155075 50.61704893 74.26171875 51.8046875 C86.9555806 58.02405055 99.31251123 64.71435973 111.54980469 71.78857422 C113.97887453 73.19196684 116.41433943 74.58349174 118.8515625 75.97265625 C128.65358695 81.60039687 137.96985293 87.77747651 147.1875 94.3125 C148.37100996 95.14465043 149.55460143 95.97668496 150.73828125 96.80859375 C154.24214902 99.28150536 157.7206441 101.78800876 161.1875 104.3125 C161.826875 104.77769043 162.46625 105.24288086 163.125 105.72216797 C172.3413196 112.4566515 181.17399943 119.50653207 189.74511719 127.04492188 C190.96235693 128.11464238 192.18735119 129.17552945 193.4140625 130.234375 C195.3537538 131.91065143 197.27326193 133.60722359 199.1875 135.3125 C199.98285156 136.01503906 200.77820313 136.71757813 201.59765625 137.44140625 C208.55639119 143.69545917 215.23385543 150.22308045 221.875 156.8125 C223.19310669 158.1111499 223.19310669 158.1111499 224.5378418 159.43603516 C229.74579346 164.63664823 234.55568582 170.01031499 239.14794922 175.76269531 C241.26070483 178.40401918 243.43515343 180.98492117 245.625 183.5625 C260.1875 201.31537102 260.1875 201.31537102 260.1875 205.3125 C239.94662443 205.64536702 219.96826587 205.21135229 200.08984375 201.07421875 C197.36959036 200.54323836 194.74486752 200.10453064 192.00390625 199.76953125 C169.93462196 196.99474531 148.50484592 189.16913927 128.1875 180.3125 C127.53749023 180.03229004 126.88748047 179.75208008 126.21777344 179.46337891 C98.1663824 167.25731176 73.32933275 150.33724246 51.1875 129.3125 C50.38626709 128.55428955 50.38626709 128.55428955 49.56884766 127.78076172 C29.30466663 108.46806378 14.35561666 84.97793829 2.05297852 59.96533203 C-9.67982268 36.11458725 -24.17080992 16.23838239 -50.23828125 7.11328125 C-51.08777344 6.84902344 -51.93726563 6.58476562 -52.8125 6.3125 C-39.20149068 -2.76150622 -15.61917828 -0.05346096 0 0 Z " fill="#5AAA3C" transform="translate(492.8125,451.6875)"/>
<path d="M0 0 C8.88387959 4.05831772 16.06900715 11.78335667 23.140625 18.38671875 C25.11820537 20.19409753 27.0866654 21.91391972 29.15625 23.60546875 C31.44387163 25.53172158 33.34231006 27.34581255 35.25 29.625 C37.99767007 32.86074304 40.84412144 35.96810716 43.75 39.0625 C61.42301818 58.50550179 75.51905684 82.14188697 81 108 C81.17732666 108.80703369 81.35465332 109.61406738 81.53735352 110.44555664 C82.982879 117.53776588 83.27134384 124.33869091 83.1875 131.5625 C83.1865332 133.15094727 83.1865332 133.15094727 83.18554688 134.77148438 C83.12998845 144.7905206 82.3755383 154.02031705 79.4375 163.625 C79.17501465 164.48601318 78.9125293 165.34702637 78.64208984 166.23413086 C73.95327213 180.97410832 66.60096063 195.48662943 55 206 C56.10334251 202.62601058 57.25405672 199.27516314 58.47265625 195.94140625 C58.73240234 195.22533203 58.99214844 194.50925781 59.25976562 193.77148438 C59.79412636 192.30101726 60.33318043 190.83224705 60.87695312 189.36523438 C68.712074 167.61837768 64.49496517 142.76947928 55.05566406 122.30688477 C54.05231452 120.19676421 53.0317707 118.09634642 52 116 C51.29230469 114.54207031 51.29230469 114.54207031 50.5703125 113.0546875 C38.19550264 89.11052879 19.95104036 67.90559489 2 48 C-11.42436559 58.85374239 -21.94086611 73.06512595 -31.73388672 87.17626953 C-32.56998692 88.38060206 -33.41008776 89.58216818 -34.25439453 90.78076172 C-52.40832002 116.61055566 -66.36211197 146.28537803 -61.45703125 178.57421875 C-60.77615906 181.45193824 -59.95175416 184.20119752 -59 187 C-58.67515625 188.05960938 -58.3503125 189.11921875 -58.015625 190.2109375 C-56.15482967 196.18250482 -56.15482967 196.18250482 -53.3125 201.72265625 C-52.879375 202.47417969 -52.44625 203.22570312 -52 204 C-52.33 204.66 -52.66 205.32 -53 206 C-63.90100686 193.80338166 -71.0158735 181.71331486 -76 166 C-76.29648437 165.16210938 -76.59296875 164.32421875 -76.8984375 163.4609375 C-83.51518575 143.87274218 -82.59644109 121.63123007 -77 102 C-76.81808105 101.34692871 -76.63616211 100.69385742 -76.44873047 100.02099609 C-65.87070499 62.93646174 -37.41799875 28.86753632 -6.8203125 6.1640625 C-4.32580735 4.24999622 -2.15610314 2.28109463 0 0 Z " fill="#F49E28" transform="translate(767,174)"/>
<path d="M0 0 C2.31012383 0.00541013 4.62005745 -0.00000252 6.93017578 -0.00634766 C8.41324912 -0.00568761 9.89632235 -0.00440799 11.37939453 -0.00244141 C12.062789 -0.00446564 12.74618347 -0.00648987 13.45028687 -0.00857544 C17.06478674 0.00909372 20.40276686 0.27831333 23.91845703 1.13037109 C16.02766917 28.74812861 -3.28611249 53.78152574 -28.33935547 67.77148438 C-40.02323824 74.05052442 -51.76391536 78.05893663 -64.78515625 80.65869141 C-80.82779424 83.95386221 -96.5719731 87.86085458 -112.08154297 93.13037109 C-110.7844923 90.39135841 -109.35269137 87.98463718 -107.54248047 85.55615234 C-107.04868896 84.89301025 -106.55489746 84.22986816 -106.04614258 83.54663086 C-97.87017717 72.72612803 -89.84431124 63.49828255 -79.08154297 55.13037109 C-78.02400516 54.29474501 -76.96671891 53.45880048 -75.90966797 52.62255859 C-68.86689924 47.08872768 -61.64591497 41.93719425 -54.08154297 37.13037109 C-52.97681641 36.42267578 -51.87208984 35.71498047 -50.73388672 34.98583984 C-40.29913049 28.44486422 -29.26316763 23.25992727 -18.08154297 18.13037109 C-38.31862831 23.41121636 -59.58446011 33.27408715 -76.29638672 45.91552734 C-78.08154297 47.13037109 -78.08154297 47.13037109 -80.08154297 47.13037109 C-79.67838867 46.33083008 -79.67838867 46.33083008 -79.26708984 45.51513672 C-77.85753369 42.67976923 -76.48459837 39.82795112 -75.11279297 36.97412109 C-74.54173828 35.78689453 -73.97068359 34.59966797 -73.38232422 33.37646484 C-72.78202833 32.12778398 -72.18176827 30.87908589 -71.58154297 29.63037109 C-70.40481063 27.1822852 -69.22767048 24.73439692 -68.05029297 22.28662109 C-67.52886719 21.201875 -67.00744141 20.11712891 -66.47021484 18.99951172 C-66.01195312 18.05269531 -65.55369141 17.10587891 -65.08154297 16.13037109 C-64.78272217 15.38537354 -64.48390137 14.64037598 -64.17602539 13.87280273 C-62.67431339 11.48205579 -61.23530346 11.04822045 -58.60107422 10.09521484 C-57.69139893 9.76207275 -56.78172363 9.42893066 -55.84448242 9.08569336 C-54.8708374 8.74981201 -53.89719238 8.41393066 -52.89404297 8.06787109 C-51.40360474 7.54181274 -51.40360474 7.54181274 -49.88305664 7.00512695 C-33.43949558 1.34937137 -17.28654584 -0.04827607 0 0 Z " fill="#A1C93E" transform="translate(1031.08154296875,361.86962890625)"/>
<path d="M0 0 C3.30635052 1.52818311 3.30635052 1.52818311 5.69604492 1.78051758 C7.6328125 2.48828125 7.6328125 2.48828125 9.01733398 4.5703125 C9.42540283 5.47136719 9.83347168 6.37242187 10.25390625 7.30078125 C10.71474609 8.29464844 11.17558594 9.28851563 11.65039062 10.3125 C12.11896484 11.36050781 12.58753906 12.40851563 13.0703125 13.48828125 C14.00374386 15.53121424 14.93991151 17.57289937 15.87890625 19.61328125 C16.33378418 20.60457031 16.78866211 21.59585937 17.25732422 22.6171875 C18.90311279 26.05248633 20.72369213 29.3560637 22.63696289 32.6484375 C23.6328125 34.48828125 23.6328125 34.48828125 24.6328125 37.48828125 C21.5399501 35.98751768 18.58210436 34.32095335 15.6171875 32.58203125 C-1.61663528 22.6060275 -19.13395332 13.88465631 -38.3671875 8.48828125 C-37.70936279 8.78895508 -37.05153809 9.08962891 -36.3737793 9.39941406 C-2.57363843 24.95470978 39.65151291 48.28829231 56.6328125 83.48828125 C55.98957031 83.29194092 55.34632813 83.09560059 54.68359375 82.89331055 C43.19416272 79.40734997 31.83788114 76.01331407 19.97265625 74.09375 C16.43341075 73.45213239 13.08084076 72.50806639 9.6328125 71.48828125 C7.32049412 70.90422839 5.00798711 70.32092193 2.6953125 69.73828125 C-15.83877158 64.85293211 -32.0138613 57.45187542 -46.3671875 44.48828125 C-47.20894531 43.72902344 -48.05070313 42.96976562 -48.91796875 42.1875 C-62.50806013 29.27374287 -73.75254355 11.43158395 -79.3671875 -6.51171875 C-79.3671875 -7.17171875 -79.3671875 -7.83171875 -79.3671875 -8.51171875 C-56.59170817 -16.10354519 -21.25407521 -8.76972126 0 0 Z " fill="#A1C93E" transform="translate(561.3671875,371.51171875)"/>
<path d="M0 0 C5.77401788 3.45800701 9.68554965 7.50703592 13.11328125 13.265625 C13.79390625 12.564375 14.47453125 11.863125 15.17578125 11.140625 C24.86673054 1.47712882 33.29962783 -3.22507245 47.13989258 -3.23632812 C55.54852512 -3.01116543 61.96378752 -0.4153775 68.29296875 5.19921875 C75.34555953 12.70539939 77.24658057 20.74977346 77.22680664 30.91357422 C77.22673111 32.21446991 77.22665558 33.5153656 77.22657776 34.85568237 C77.22147226 36.26055948 77.21625629 37.66543619 77.2109375 39.0703125 C77.20907048 40.51905264 77.20764792 41.96779342 77.20664978 43.41653442 C77.20284698 47.21408863 77.19303599 51.01160408 77.1819458 54.80914307 C77.1716834 58.69046505 77.16714184 62.57179334 77.16210938 66.453125 C77.15141155 74.05731131 77.13383305 81.66145777 77.11328125 89.265625 C72.16328125 89.265625 67.21328125 89.265625 62.11328125 89.265625 C62.09869873 87.43459229 62.08411621 85.60355957 62.0690918 83.71704102 C62.01725154 77.63804444 61.95191583 71.55930737 61.87756634 65.480546 C61.8330153 61.79833263 61.7937267 58.11622601 61.7668457 54.43383789 C61.74065885 50.8739359 61.70015096 47.31444813 61.65009499 43.75480461 C61.62551869 41.74935705 61.61542147 39.74374871 61.6056366 37.73817444 C61.47241848 29.38867537 61.13411636 22.00192106 55.73828125 15.328125 C49.22544694 10.21089804 42.08658815 10.44829583 34.11328125 11.265625 C26.97768321 13.22815263 22.98690726 16.84612866 19.171875 23.08203125 C17.21082641 27.12714624 16.97372229 30.75563445 16.90795898 35.22753906 C16.88801376 36.42848206 16.86806854 37.62942505 16.84751892 38.86676025 C16.83080643 40.15854187 16.81409393 41.45032349 16.796875 42.78125 C16.77629162 44.12075421 16.75529479 45.46025213 16.73390198 46.79974365 C16.67882416 50.31777841 16.62935219 53.8358704 16.58105469 57.35400391 C16.530735 60.94699164 16.47510369 64.53989673 16.41992188 68.1328125 C16.31251523 75.17701297 16.21152287 82.22128988 16.11328125 89.265625 C11.16328125 89.265625 6.21328125 89.265625 1.11328125 89.265625 C1.10393555 87.36876953 1.09458984 85.47191406 1.08496094 83.51757812 C1.0493371 77.22699295 0.99547823 70.93676696 0.92937851 64.64643097 C0.88998937 60.83523419 0.85775939 57.02426548 0.84228516 53.21289062 C0.82706144 49.5297216 0.7925167 45.84717995 0.74497223 42.16429138 C0.73021686 40.76425146 0.72224361 39.36412194 0.7213974 37.96400452 C0.71027 28.77869371 0.53594947 21.68829322 -6.26171875 14.890625 C-12.49070477 11.03458604 -18.69092766 10.33808069 -25.88671875 11.265625 C-33.19842644 13.52102981 -38.26939738 17.50758879 -41.88671875 24.265625 C-43.47585873 28.42435774 -44.14835128 31.91908514 -44.20556641 36.36279297 C-44.2254361 37.54356415 -44.24530579 38.72433533 -44.26577759 39.94088745 C-44.2831044 41.83026535 -44.2831044 41.83026535 -44.30078125 43.7578125 C-44.3201474 45.05888947 -44.33951355 46.35996643 -44.35946655 47.70046997 C-44.41059814 51.14283264 -44.45032463 54.58523422 -44.48760986 58.027771 C-44.52776923 61.54725621 -44.57880685 65.06658223 -44.62890625 68.5859375 C-44.72544051 75.4790565 -44.80890993 82.37226945 -44.88671875 89.265625 C-49.83671875 89.265625 -54.78671875 89.265625 -59.88671875 89.265625 C-59.88671875 59.565625 -59.88671875 29.865625 -59.88671875 -0.734375 C-54.93671875 -0.734375 -49.98671875 -0.734375 -44.88671875 -0.734375 C-44.55671875 3.225625 -44.22671875 7.185625 -43.88671875 11.265625 C-43.06171875 10.21375 -42.23671875 9.161875 -41.38671875 8.078125 C-31.37627568 -3.58498555 -13.80653928 -6.59001203 0 0 Z " fill="#63AA3E" transform="translate(611.88671875,704.734375)"/>
<path d="M0 0 C3.62445598 3.48055699 5.8999723 7.72746844 8 12.25 C8.52024246 13.34914986 8.52024246 13.34914986 9.05099487 14.47050476 C10.18214691 17.78348128 10.24023381 20.46792375 10.22705078 23.96801758 C10.22734283 24.62223694 10.22763489 25.2764563 10.22793579 25.95050049 C10.22654982 28.09864879 10.21102371 30.24644404 10.1953125 32.39453125 C10.19157975 33.8895397 10.18873402 35.3845506 10.18673706 36.87956238 C10.17912118 40.80377014 10.15949041 44.72782855 10.1373291 48.65197754 C10.11682649 52.6605426 10.10772592 56.66913193 10.09765625 60.67773438 C10.07624243 68.53523224 10.04107711 76.3925803 10 84.25 C5.38 84.25 0.76 84.25 -4 84.25 C-4 80.29 -4 76.33 -4 72.25 C-4.66 72.25 -5.32 72.25 -6 72.25 C-6.24878906 72.848125 -6.49757813 73.44625 -6.75390625 74.0625 C-10.19247808 80.09886433 -18.51013934 83.43423675 -24.84765625 85.55859375 C-35.46506806 87.88731976 -48.06688163 87.39061236 -57.53125 81.73828125 C-63.43903234 77.47048394 -66.68433204 73.19700389 -69 66.25 C-70.05325375 50.30940964 -70.05325375 50.30940964 -66 44.25 C-60.11212169 37.52906457 -51.86072593 32.61565566 -43 31.25 C-40.06559092 31.11852993 -37.13605839 31.13352339 -34.19921875 31.15234375 C-32.9446563 31.15446617 -32.9446563 31.15446617 -31.66474915 31.15663147 C-29.005629 31.16220816 -26.3465945 31.17475635 -23.6875 31.1875 C-21.87955851 31.19251801 -20.0716157 31.19708039 -18.26367188 31.20117188 C-13.84241516 31.21216996 -9.42122207 31.2294185 -5 31.25 C-5.12628657 29.1661775 -5.26226712 27.08294096 -5.40234375 25 C-5.47702881 23.83984375 -5.55171387 22.6796875 -5.62866211 21.484375 C-6.15685377 16.88379438 -7.07023341 14.85586657 -10 11.25 C-18.21978407 4.91944049 -25.94147714 4.70987669 -36 5.25 C-43.21787583 6.33817215 -48.67984802 9.65323447 -54.65234375 13.7265625 C-57 15.25 -57 15.25 -60 16.25 C-60.13277344 15.56292969 -60.26554687 14.87585938 -60.40234375 14.16796875 C-60.57894531 13.26691406 -60.75554687 12.36585938 -60.9375 11.4375 C-61.11152344 10.54417969 -61.28554688 9.65085937 -61.46484375 8.73046875 C-61.97741153 6.13602829 -61.97741153 6.13602829 -63 3.25 C-43.65442925 -7.74120821 -19.68053457 -15.02266818 0 0 Z " fill="#62A83D" transform="translate(454,709.75)"/>
<path d="M0 0 C0.90298828 -0.01611328 1.80597656 -0.03222656 2.73632812 -0.04882812 C8.73605207 -0.0531726 13.07288205 0.88990773 18.5625 3.3125 C19.31660156 3.60511719 20.07070313 3.89773438 20.84765625 4.19921875 C28.98183951 7.86407055 33.50987597 14.05427774 36.70306396 22.21096802 C38.400015 28.33492335 38.04701338 34.64431112 37.953125 40.9453125 C37.94564855 42.43316888 37.93996227 43.92103521 37.93597412 45.40890503 C37.92082785 49.29215515 37.88164424 53.17479027 37.8371582 57.05780029 C37.7959651 61.03324061 37.77791223 65.00878199 37.7578125 68.984375 C37.71513639 76.7607272 37.64488014 84.53644847 37.5625 92.3125 C32.9425 92.3125 28.3225 92.3125 23.5625 92.3125 C23.2325 88.6825 22.9025 85.0525 22.5625 81.3125 C21.36625 82.529375 20.17 83.74625 18.9375 85 C10.48589959 92.40007937 1.1427379 94.72195149 -9.8125 94.8125 C-10.54911865 94.81894531 -11.2857373 94.82539062 -12.04467773 94.83203125 C-20.80858564 94.62658858 -28.9111714 91.1657634 -35.4375 85.3125 C-41.0798501 78.46521271 -42.40143942 71.58820535 -42.01953125 62.83984375 C-41.13994364 57.50918863 -39.1132669 54.19202338 -35.4375 50.3125 C-34.64279297 49.45398438 -34.64279297 49.45398438 -33.83203125 48.578125 C-26.1016558 41.15990248 -16.07055096 39.14902746 -5.734375 39.21484375 C-4.89658508 39.2162587 -4.05879517 39.21767365 -3.19561768 39.21913147 C-0.52620843 39.22471803 2.1431162 39.23726806 4.8125 39.25 C6.62499879 39.25501674 8.43749889 39.25957934 10.25 39.26367188 C14.68753248 39.27468306 19.12500191 39.29193845 23.5625 39.3125 C23.44081969 37.57099773 23.30853322 35.83023473 23.171875 34.08984375 C23.09936523 33.12038818 23.02685547 32.15093262 22.95214844 31.15209961 C22.19926599 25.66539799 20.0477638 21.72350061 16.0625 17.9375 C7.48393971 12.36143581 -2.55920488 12.28380011 -12.4375 14.3125 C-18.14183337 16.25648737 -24.16192749 19.03692749 -28.4375 23.3125 C-29.4275 23.3125 -30.4175 23.3125 -31.4375 23.3125 C-31.97144179 21.9007217 -32.48915104 20.48279756 -33 19.0625 C-33.29003906 18.27359375 -33.58007812 17.4846875 -33.87890625 16.671875 C-34.50701501 14.01888413 -34.38766599 12.84232865 -33.4375 10.3125 C-30.8965137 8.74289308 -28.49985077 7.44734537 -25.8125 6.1875 C-25.11253906 5.84074219 -24.41257812 5.49398437 -23.69140625 5.13671875 C-15.76095113 1.29655403 -8.76446353 -0.03114593 0 0 Z " fill="#60A73B" transform="translate(848.4375,701.6875)"/>
<path d="M0 0 C3.2914911 -0.08857863 6.58266805 -0.1409104 9.875 -0.1875 C10.7928125 -0.21263672 11.710625 -0.23777344 12.65625 -0.26367188 C23.75229708 -0.38088364 32.64324162 2.56352407 41 10 C46.35698534 16.38572726 48.25884864 23.5699288 48.22705078 31.85327148 C48.22734283 32.49802933 48.22763489 33.14278717 48.22793579 33.80708313 C48.22655626 35.91189626 48.21106128 38.01634342 48.1953125 40.12109375 C48.19157745 41.59082343 48.1887328 43.06055562 48.18673706 44.5302887 C48.1791393 48.37884523 48.15952447 52.22724829 48.1373291 56.07574463 C48.11678708 60.01076177 48.10771755 63.94580395 48.09765625 67.88085938 C48.07627448 75.5873173 48.04112433 83.2936175 48 91 C43.38 91 38.76 91 34 91 C33.67 87.7 33.34 84.4 33 81 C32.29875 81.7425 31.5975 82.485 30.875 83.25 C22.25837418 91.49198991 13.06888782 94.35100506 1.375 94.4375 C0.58778564 94.44749023 -0.19942871 94.45748047 -1.01049805 94.46777344 C-9.33837832 94.34618586 -16.22651061 92.45512101 -22.375 86.625 C-23.18710937 85.87476563 -23.99921875 85.12453125 -24.8359375 84.3515625 C-30.09587406 78.63589137 -31.43195746 72.98129965 -31.26953125 65.2734375 C-30.48302524 58.63943025 -28.32120018 52.7207609 -23.375 48.125 C-16.89860441 43.07971804 -9.32769484 38.85932567 -0.96582031 38.88647461 C0.20494049 38.88658791 0.20494049 38.88658791 1.39935303 38.88670349 C2.23178528 38.89186478 3.06421753 38.89702606 3.921875 38.90234375 C4.78186096 38.9037587 5.64184692 38.90517365 6.52789307 38.90663147 C9.26863109 38.91221903 12.00928676 38.92476925 14.75 38.9375 C16.6106759 38.94251661 18.47135309 38.94707923 20.33203125 38.95117188 C24.88805246 38.96218439 29.44401228 38.97944049 34 39 C33.87507025 37.09321717 33.74035001 35.1870743 33.6015625 33.28125 C33.52760254 32.21970703 33.45364258 31.15816406 33.37744141 30.06445312 C32.76860042 25.1212629 31.33133115 20.9763061 27.4609375 17.6953125 C18.7307679 12.23397353 8.86330834 12.00421049 -0.9375 14.125 C-6.14705215 15.51554457 -10.34743858 17.65257227 -14.84375 20.59765625 C-17 22 -17 22 -21 24 C-21.99 19.71 -22.98 15.42 -24 11 C-8.33418367 1.49489796 -8.33418367 1.49489796 0 2 C0 1.34 0 0.68 0 0 Z " fill="#62A93C" transform="translate(739,702)"/>
<path d="M0 0 C7.63475293 5.06217314 14.700307 11.27719456 16.8125 20.5 C17.85997041 30.14670372 17.45713559 38.2451283 11.8125 46.5 C11.19375 47.428125 10.575 48.35625 9.9375 49.3125 C3.05510723 56.39731609 -4.23123667 59.52815741 -14.12329102 59.85375977 C-24.7296275 59.9596892 -32.24518131 57.78456973 -40.1875 50.5 C-46.84884939 43.23717436 -49.79598532 36.10597368 -49.46875 26.234375 C-48.49957495 16.81183982 -44.02989681 10.25701021 -37.375 3.75 C-26.7779855 -3.73024553 -12.00318275 -6.14428655 0 0 Z " fill="#A4CD40" transform="translate(784.1875,328.5)"/>
<path d="M0 0 C4.95 0 9.9 0 15 0 C15.01401855 2.7841333 15.01401855 2.7841333 15.02832031 5.62451172 C15.06399571 11.79135288 15.11788664 17.95783008 15.18390274 24.12441826 C15.22323207 27.85932926 15.25549097 31.59400965 15.27099609 35.32910156 C15.28625975 38.94096111 15.32087336 42.55218599 15.36830902 46.16376114 C15.38302376 47.53423639 15.39103526 48.90480231 15.39188385 50.27535629 C15.40257169 58.89023498 15.48164895 68.02236175 21.59869385 74.76119995 C26.85543087 79.27347994 34.29879469 78.81330946 40.85546875 78.47265625 C47.44228495 77.87791996 52.48709535 75.91328359 56.86328125 70.83984375 C60.84606904 65.14607314 63.2286652 60.03555889 63.31884766 53.01635742 C63.33871735 51.83551071 63.35858704 50.654664 63.37905884 49.43803406 C63.39061005 48.17328751 63.40216125 46.90854095 63.4140625 45.60546875 C63.43342865 44.30297684 63.4527948 43.00048492 63.4727478 41.65852356 C63.52394518 38.2079265 63.56363676 34.75729056 63.60089111 31.30651855 C63.64100888 27.78042074 63.69206562 24.25448292 63.7421875 20.72851562 C63.83879982 13.81912102 63.92223937 6.90963223 64 0 C68.95 0 73.9 0 79 0 C79 29.7 79 59.4 79 90 C74.38 90 69.76 90 65 90 C64.67 85.71 64.34 81.42 64 77 C62.700625 78.7634375 62.700625 78.7634375 61.375 80.5625 C55.0930273 87.56883536 47.39569508 91.71789986 38.06640625 92.64453125 C28.01597721 93.17560128 19.27328668 92.2564158 11 86 C8.64437444 83.84736422 6.77430655 81.64578574 5 79 C4.4225 78.195625 3.845 77.39125 3.25 76.5625 C-0.76393472 68.33393382 -0.2623424 59.70596547 -0.1953125 50.78125 C-0.19157633 49.31294956 -0.18873222 47.84464661 -0.18673706 46.37634277 C-0.17914807 42.53602051 -0.15954103 38.69585263 -0.1373291 34.85559082 C-0.11676793 30.92718595 -0.10771351 26.99875582 -0.09765625 23.0703125 C-0.07629 15.38013023 -0.04114726 7.69010653 0 0 Z " fill="#60A73A" transform="translate(1002,704)"/>
<path d="M0 0 C5.28 0 10.56 0 16 0 C28.82250977 29.31976318 28.82250977 29.31976318 34.1640625 42.95898438 C37.78073703 52.11658975 41.88295041 61.05864231 46 70 C50.01308111 61.1467142 53.70959588 52.16336273 57.4375 43.1875 C58.09950892 41.59566135 58.76161762 40.00386418 59.42382812 38.41210938 C60.07292995 36.85156803 60.72201866 35.29102122 61.37109375 33.73046875 C61.68676804 32.97150299 62.00244232 32.21253723 62.3276825 31.43057251 C63.71125915 28.10313927 65.09302719 24.77501047 66.4699707 21.44482422 C69.47017571 14.20068874 72.67956115 7.10419474 76 0 C80.95 0 85.9 0 91 0 C90.17248119 3.31007524 89.20585292 6.07959669 87.8828125 9.19921875 C87.22756592 10.74778564 87.22756592 10.74778564 86.55908203 12.32763672 C86.08583496 13.4363916 85.61258789 14.54514648 85.125 15.6875 C84.63757324 16.83492676 84.15014648 17.98235352 83.64794922 19.16455078 C79.76918183 28.26640987 75.80857739 37.33129244 71.79345703 46.3737793 C67.85174759 55.26395838 63.9837932 64.18314857 60.625 73.3125 C58.37977006 79.18890428 55.80192273 84.8650113 53.1015625 90.54296875 C51.43620219 94.05076775 49.81820193 97.57849168 48.2109375 101.11328125 C47.72254395 102.18666748 47.23415039 103.26005371 46.73095703 104.3659668 C45.75856428 106.50583999 44.78812301 108.64660125 43.81982422 110.78833008 C43.36881348 111.77857178 42.91780273 112.76881348 42.453125 113.7890625 C42.05254883 114.67287598 41.65197266 115.55668945 41.23925781 116.46728516 C39.94220647 119.11811466 38.72431878 121.59945693 37 124 C34.05906948 124.37859559 31.72355042 124.47775614 28.8125 124.3125 C28.06291016 124.28994141 27.31332031 124.26738281 26.54101562 124.24414062 C24.6931553 124.18529157 22.84632333 124.09560938 21 124 C22.5048772 118.87376054 24.76416677 114.4701415 27.3125 109.8125 C31.31344447 102.361247 31.31344447 102.361247 35.125 94.8125 C35.51945313 94.01457031 35.91390625 93.21664062 36.3203125 92.39453125 C38.04834417 86.30669554 34.70360537 80.4455025 32.3125 74.9375 C31.82233398 73.78217773 31.82233398 73.78217773 31.32226562 72.60351562 C29.3366387 67.96026183 27.25334623 63.36854889 25.125 58.7890625 C22.13971416 52.35178973 19.3053874 45.85577104 16.50375366 39.33679199 C11.95885657 28.76154185 7.36394855 18.21524751 2.53979492 7.76342773 C0 2.21037814 0 2.21037814 0 0 Z " fill="#5FA83B" transform="translate(898,704)"/>
<path d="M0 0 C4.62 0 9.24 0 14 0 C14 8.58 14 17.16 14 26 C22.91 26 31.82 26 41 26 C41 29.96 41 33.92 41 38 C32.09 38 23.18 38 14 38 C14.05110737 45.82964917 14.11413381 53.6573312 14.20751953 61.48632812 C14.23787523 64.14791611 14.25692114 66.8089002 14.27099609 69.47070312 C14.29248215 73.30381643 14.33916563 77.13593602 14.390625 80.96875 C14.39185364 82.15239136 14.39308228 83.33603271 14.39434814 84.55554199 C14.51601026 91.46928061 15.20359613 96.1527446 19 102 C23.90947603 105.27298402 29.80428157 104.57922397 35.5 103.546875 C37.34760073 103.08497482 39.17680456 102.55039862 41 102 C41.96070434 104.88211302 42.10581883 106.69850044 42.0625 109.6875 C42.05347656 110.49574219 42.04445313 111.30398438 42.03515625 112.13671875 C42.02355469 112.75160156 42.01195312 113.36648438 42 114 C40.75108386 114.48198463 39.50081192 114.96045677 38.25 115.4375 C37.55390625 115.70433594 36.8578125 115.97117187 36.140625 116.24609375 C28.39236526 118.97495165 19.79920057 119.10829842 12.0703125 116.171875 C6.72160523 113.14430485 2.97875417 107.96638309 0.63482666 102.35562134 C-0.814916 96.97612964 -0.3591652 91.2849926 -0.29296875 85.75390625 C-0.28736543 84.37386031 -0.28309881 82.99380835 -0.28010559 81.61375427 C-0.26871456 78.00183298 -0.23929805 74.39028025 -0.20599365 70.77850342 C-0.17516793 67.08480819 -0.16157369 63.39105273 -0.14648438 59.69726562 C-0.11442172 52.46465719 -0.06170203 45.23242744 0 38 C-5.61 38 -11.22 38 -17 38 C-17 34.04 -17 30.08 -17 26 C-11.39 26 -5.78 26 0 26 C0 17.42 0 8.84 0 0 Z " fill="#5EA539" transform="translate(494,678)"/>
<path d="M0 0 C-0.33 4.29 -0.66 8.58 -1 13 C-4.77816093 13.75563219 -7.08176882 14.05481525 -10.75 13.875 C-17.68234156 13.82342008 -24.45548551 15.44864959 -29.66389465 20.32328796 C-35.98079301 28.25052179 -36.73873988 36.99022318 -36.70703125 46.76171875 C-36.72215256 48.03352493 -36.73727386 49.30533112 -36.75285339 50.61567688 C-36.7882874 53.95815633 -36.80286834 57.2993402 -36.80688477 60.64190674 C-36.81628974 64.06807608 -36.85374803 67.49393445 -36.88867188 70.91992188 C-36.95131119 77.61334723 -36.98381556 84.30630766 -37 91 C-41.95 91 -46.9 91 -52 91 C-52 61.3 -52 31.6 -52 1 C-47.05 1 -42.1 1 -37 1 C-36.67 4.96 -36.34 8.92 -36 13 C-35.38125 12.13375 -34.7625 11.2675 -34.125 10.375 C-25.73965518 0.32211501 -12.40872739 -3.10218185 0 0 Z " fill="#64AA3F" transform="translate(1157,703)"/>
<path d="M0 0 C1.54424754 0.0201057 3.0885205 0.03834924 4.6328125 0.0546875 C8.3807448 0.09833797 12.12770539 0.16713756 15.875 0.25 C15.94463155 2.6333238 15.99521656 5.01458093 16.03515625 7.3984375 C16.0566272 8.06673584 16.07809814 8.73503418 16.10021973 9.42358398 C16.18305441 16.03015523 14.15512871 20.34351099 9.875 25.25 C3.35737049 31.79934547 -5.31012412 33.40065906 -14.25 33.6875 C-20.04198452 33.54899602 -24.50106803 32.86062698 -29.125 29.25 C-33.38254748 24.77411675 -34.6848999 20.74035396 -34.5859375 14.6640625 C-33.70399593 10.04508037 -30.84870324 6.9586751 -27.125 4.25 C-18.58126697 -0.77455503 -9.55265444 -0.21766581 0 0 Z " fill="#FAFCFA" transform="translate(856.125,750.75)"/>
<path d="M0 0 C1.40429047 0.01005265 2.80858793 0.01917445 4.21289062 0.02734375 C7.62127485 0.05076907 11.029295 0.08357254 14.4375 0.125 C14.5191082 2.50070543 14.57827222 4.87355841 14.625 7.25 C14.65013672 7.91515625 14.67527344 8.5803125 14.70117188 9.265625 C14.80019396 15.99912648 12.32541795 20.7114167 7.953125 25.7421875 C1.06964885 32.02247244 -8.35192026 33.53837817 -17.296875 33.375 C-23.19653768 32.92335118 -27.80525794 31.92729955 -32 27.625 C-32.515625 26.8 -33.03125 25.975 -33.5625 25.125 C-34.2225 24.135 -34.8825 23.145 -35.5625 22.125 C-36.30375025 17.5999258 -35.98866529 14.0114238 -34 9.875 C-24.66543992 -0.65629855 -13.20798437 -0.16543145 0 0 Z " fill="#FBFCFA" transform="translate(758.5625,750.875)"/>
<path d="M0 0 C0.68100266 0.00141495 1.36200531 0.0028299 2.06364441 0.00428772 C4.22346522 0.00985327 6.38317964 0.02239922 8.54296875 0.03515625 C10.01367037 0.04017571 11.48437363 0.04473784 12.95507812 0.04882812 C16.54690915 0.05981137 20.13867855 0.07705203 23.73046875 0.09765625 C23.75752183 2.51439849 23.77733313 4.93083565 23.79296875 7.34765625 C23.80134766 8.02957031 23.80972656 8.71148438 23.81835938 9.4140625 C23.84875263 15.67507239 23.30851386 19.08024506 19.171875 23.921875 C12.77309638 30.26744133 4.50239145 33.23578193 -4.45703125 33.47265625 C-10.63351098 33.16482527 -16.17483254 32.73698567 -21.14453125 28.84765625 C-24.50751017 24.49556589 -26.58862754 21.25775683 -26.33203125 15.66015625 C-25.53243777 10.56167306 -23.21573929 7.34643602 -19.26953125 4.09765625 C-13.20335701 0.47128396 -6.91959795 -0.02847571 0 0 Z " fill="#FBFCFB" transform="translate(425.26953125,750.90234375)"/>
<path d="M0 0 C-0.72590332 0.25692627 -1.45180664 0.51385254 -2.19970703 0.77856445 C-5.50956028 1.95257675 -8.8172842 3.1324797 -12.125 4.3125 C-13.26710938 4.71662109 -14.40921875 5.12074219 -15.5859375 5.53710938 C-16.69453125 5.93349609 -17.803125 6.32988281 -18.9453125 6.73828125 C-19.96125488 7.09962158 -20.97719727 7.46096191 -22.02392578 7.83325195 C-25.08977118 8.98170118 -25.08977118 8.98170118 -28.25341797 10.64135742 C-31 12 -31 12 -33 12 C-33 11.01 -33 10.02 -33 9 C-28.94793389 7.54386012 -24.89120266 6.10183624 -20.82958984 4.67260742 C-19.4489947 4.18458535 -18.06974063 3.69275188 -16.69189453 3.19702148 C-14.70947265 2.48452162 -12.72260925 1.78593286 -10.734375 1.08984375 C-9.54038086 0.66566162 -8.34638672 0.24147949 -7.11621094 -0.19555664 C-4.13453639 -0.96526971 -2.80734931 -1.12111677 0 0 Z " fill="#C6E6C0" transform="translate(1022,482)"/>
<path d="M0 0 C5.28 0 10.56 0 16 0 C15.67 0.99 15.34 1.98 15 3 C10.38 3 5.76 3 1 3 C0.67 2.01 0.34 1.02 0 0 Z " fill="#70B44F" transform="translate(898,704)"/>
<path d="M0 0 C0.33 0 0.66 0 1 0 C1.87557031 6.54311329 2.3548854 11.76647981 0 18 C-0.33 18 -0.66 18 -1 18 C-1.02707139 15.75006641 -1.04642829 13.50003905 -1.0625 11.25 C-1.07410156 9.99703125 -1.08570313 8.7440625 -1.09765625 7.453125 C-1.02021027 4.71463499 -0.82780815 2.58119707 0 0 Z " fill="#91B837" transform="translate(794,491)"/>
<path d="M0 0 C0.99 0.33 1.98 0.66 3 1 C4.1194613 3.8914086 4.10768197 6.67762612 4.0625 9.75 C4.05347656 10.54921875 4.04445313 11.3484375 4.03515625 12.171875 C4.01775391 13.07679688 4.01775391 13.07679688 4 14 C2.30566082 10.9530371 1.50532888 8.17178534 0.875 4.75 C0.70742188 3.85796875 0.53984375 2.9659375 0.3671875 2.046875 C0.18542969 1.03367187 0.18542969 1.03367187 0 0 Z " fill="#E8F3D9" transform="translate(789,473)"/>
<path d="M0 0 C5.11365014 1.0681847 10.07227969 2.23107476 15 4 C14.01 5.485 14.01 5.485 13 7 C8.71 5.02 4.42 3.04 0 1 C0 0.67 0 0.34 0 0 Z " fill="#EEF6DE" transform="translate(521,379)"/>
<path d="M0 0 C0.89203125 0.00902344 1.7840625 0.01804687 2.703125 0.02734375 C3.37859375 0.03894531 4.0540625 0.05054688 4.75 0.0625 C2.06907309 2.74342691 0.35832637 2.44920257 -3.375 2.6875 C-4.47070312 2.76226563 -5.56640625 2.83703125 -6.6953125 2.9140625 C-7.53835938 2.96304688 -8.38140625 3.01203125 -9.25 3.0625 C-9.25 2.4025 -9.25 1.7425 -9.25 1.0625 C-6.09493858 0.12630187 -3.28413498 -0.0432123 0 0 Z " fill="#9ED068" transform="translate(860.25,647.9375)"/>
<path d="M0 0 C0.33 0 0.66 0 1 0 C1.3125 2.6875 1.3125 2.6875 1 6 C-1.5 8.875 -1.5 8.875 -4 11 C-3.52269162 9.5410574 -3.04308958 8.08286504 -2.5625 6.625 C-2.29566406 5.81289063 -2.02882813 5.00078125 -1.75390625 4.1640625 C-1 2 -1 2 0 0 Z " fill="#ACD05C" transform="translate(965,272)"/>
<path d="M0 0 C0.66 1.32 1.32 2.64 2 4 C0.35 6.31 -1.3 8.62 -3 11 C-3.33 10.34 -3.66 9.68 -4 9 C-3.22265625 6.8359375 -3.22265625 6.8359375 -2.0625 4.375 C-1.68222656 3.55773437 -1.30195312 2.74046875 -0.91015625 1.8984375 C-0.60980469 1.27195312 -0.30945313 0.64546875 0 0 Z " fill="#F3A949" transform="translate(826,369)"/>
<path d="M0 0 C2.64 0.33 5.28 0.66 8 1 C8 1.99 8 2.98 8 4 C5.64828869 3.40138258 3.3140622 2.73075648 1 2 C0.67 1.34 0.34 0.68 0 0 Z " fill="#EDF7EC" transform="translate(537,489)"/>
<path d="M0 0 C2.25245881 2.68841859 3.88213958 4.64641875 5 8 C2.53199953 6.84826645 0.95216435 5.95216435 -1 4 C-0.625 1.875 -0.625 1.875 0 0 Z " fill="#B3D66C" transform="translate(581,401)"/>
<path d="M0 0 C0.33 0.99 0.66 1.98 1 3 C0.360625 3.268125 -0.27875 3.53625 -0.9375 3.8125 C-3.33131686 4.88667752 -3.33131686 4.88667752 -4 8 C-4.66 7.67 -5.32 7.34 -6 7 C-4.02 4.69 -2.04 2.38 0 0 Z " fill="#6DAD49" transform="translate(574,709)"/>
<path d="M0 0 C2.97 0.33 5.94 0.66 9 1 C5 3 5 3 1 3 C0.67 2.01 0.34 1.02 0 0 Z " fill="#379535" transform="translate(1088,456)"/>
</svg>
